<svg preserveAspectRatio="none" width="100%" height="100%" overflow="visible" style="display: block;" viewBox="0 0 16 12" fill="none" xmlns="http://www.w3.org/2000/svg">
<path id="Icon" d="M15.25 10.5C15.664 10.5003 16 10.8359 16 11.25C16 11.6641 15.664 11.9997 15.25 12H0.75C0.335786 12 0 11.6642 0 11.25C0 10.8358 0.335786 10.5 0.75 10.5H15.25ZM15.25 5C15.664 5.00026 16 5.33595 16 5.75C16 6.16405 15.664 6.49974 15.25 6.5H0.75C0.335786 6.5 0 6.16421 0 5.75C0 5.33579 0.335786 5 0.75 5H15.25ZM15.25 0C15.664 0.000263763 16 0.335949 16 0.75C16 1.16405 15.664 1.49974 15.25 1.5H0.75C0.335786 1.5 0 1.16421 0 0.75C0 0.335786 0.335786 0 0.75 0H15.25Z" fill="var(--fill-0, #131E29)"/>
</svg>
