<svg preserveAspectRatio="none" width="100%" height="100%" overflow="visible" style="display: block;" viewBox="0 0 14.0003 14.0003" fill="none" xmlns="http://www.w3.org/2000/svg">
<path id="Icon" d="M8.96287 0.0568765C9.24301 -0.0590517 9.56582 0.00562879 9.78026 0.219963L13.7803 4.21999C13.9947 4.43439 14.0593 4.7572 13.9434 5.03737C13.8273 5.31762 13.5534 5.50025 13.25 5.50027H12.2852L10.4277 7.15067L9.23143 12.4163C9.10303 12.9813 8.37939 13.1903 7.96969 12.7806L5.12494 9.93584L1.28017 13.7806C0.987269 14.0735 0.512503 14.0735 0.219607 13.7806C-0.0731586 13.4877 -0.073246 13.0129 0.219607 12.72L4.06438 8.87529L1.21962 6.03054C0.810078 5.62081 1.01887 4.89723 1.58388 4.76882L6.84859 3.57155L8.49997 1.71509V0.75024C8.5001 0.447018 8.68271 0.172922 8.96287 0.0568765ZM9.86424 2.42506L7.81051 4.74831C7.70661 4.86519 7.56847 4.94703 7.41598 4.98171L3.24015 5.92996L8.0693 10.7591L9.05369 6.47293C9.09672 6.36503 9.16432 6.26761 9.25193 6.18973L11.5742 4.13503L9.86424 2.42506Z" fill="var(--fill-0, #131E29)"/>
</svg>
