<svg preserveAspectRatio="none" width="100%" height="100%" overflow="visible" style="display: block;" viewBox="0 0 16 14" fill="none" xmlns="http://www.w3.org/2000/svg">
<path id="Icon" d="M6.5 0C6.69891 0 6.88962 0.0790743 7.03027 0.219727L8.31055 1.5H13.25C14.7688 1.5 16 2.73122 16 4.25V11.25C16 12.7688 14.7688 14 13.25 14H2.75C1.23122 14 0 12.7688 0 11.25V2.75C1.77173e-07 1.23122 1.23122 2.0133e-08 2.75 0H6.5ZM2.75 1.5C2.05964 1.5 1.5 2.05964 1.5 2.75V11.25C1.5 11.9404 2.05964 12.5 2.75 12.5H13.25C13.9404 12.5 14.5 11.9404 14.5 11.25V4.25C14.5 3.55964 13.9404 3 13.25 3H8C7.80109 3 7.61038 2.92093 7.46973 2.78027L6.18945 1.5H2.75ZM4 8C4.55228 8 5 8.44772 5 9C5 9.55228 4.55228 10 4 10C3.44772 10 3 9.55228 3 9C3 8.44772 3.44772 8 4 8ZM12.25 8.5C12.6642 8.5 13 8.83579 13 9.25C13 9.66421 12.6642 10 12.25 10H7.75C7.33579 10 7 9.66421 7 9.25C7 8.83579 7.33579 8.5 7.75 8.5H12.25ZM4 5C4.55228 5 5 5.44772 5 6C5 6.55228 4.55228 7 4 7C3.44772 7 3 6.55228 3 6C3 5.44772 3.44772 5 4 5ZM12.25 5.5C12.6642 5.5 13 5.83579 13 6.25C13 6.66421 12.6642 7 12.25 7H7.75C7.33579 7 7 6.66421 7 6.25C7 5.83579 7.33579 5.5 7.75 5.5H12.25Z" fill="var(--fill-0, #131E29)"/>
</svg>
