<svg preserveAspectRatio="none" width="100%" height="100%" overflow="visible" style="display: block;" viewBox="0 0 15.9957 16.003" fill="none" xmlns="http://www.w3.org/2000/svg">
<path id="Icon" d="M15.8244 9.39586C16.0529 9.62856 16.0529 10.0059 15.8244 10.2386L14.4172 11.6683C14.4222 11.687 15.1363 14.3487 15.2434 14.9291C15.3506 15.5111 14.8703 15.6361 14.7297 15.6244C14.5891 15.6127 14.4091 15.5463 14.3098 15.389L12.9533 13.1556L11.7746 14.3539L12.0012 15.4388C12.0333 15.5935 11.9864 15.755 11.8762 15.8666C11.6578 16.0878 11.2912 16.0324 11.1457 15.7552L10.5969 14.7084L9.56758 14.1517C9.29469 14.0041 9.23966 13.6304 9.45821 13.4086C9.56799 13.2964 9.72695 13.25 9.87911 13.2816L10.9465 13.5121L12.1252 12.3138L9.92794 10.9349C9.67596 10.7764 9.65158 10.4493 9.7961 10.2298C9.98045 9.94991 10.3038 9.98621 10.5842 10.0599L13.5891 10.8265L14.9963 9.39586C15.2249 9.16445 15.5954 9.16445 15.8244 9.39586ZM3.501 9C3.73548 9.00029 3.94957 9.13671 4.04787 9.34961L4.78029 10.9365L6.48342 11.1797C6.70645 11.2115 6.89289 11.3653 6.96682 11.5781C7.04059 11.7909 6.99029 12.0283 6.83498 12.1914L5.59377 13.4922L5.90432 15.2959C5.9435 15.5243 5.84926 15.7557 5.66018 15.8896C5.47082 16.0235 5.22003 16.0369 5.0176 15.9238L3.501 15.0732L1.98244 15.9238C1.78029 16.0366 1.53101 16.0231 1.34182 15.8896C1.15249 15.7557 1.05652 15.5244 1.09572 15.2959L1.40529 13.4922L0.166036 12.1914C0.010648 12.0283 -0.0405631 11.791 0.0332235 11.5781C0.107074 11.3654 0.293701 11.2117 0.516622 11.1797L2.21975 10.9365L2.99611 9.27343C3.10608 9.10451 3.29555 9 3.501 9ZM12.75 0C13.1642 0 13.5 0.335786 13.5 0.75V1H14.25C14.6642 1 15 1.33579 15 1.75C15 2.16421 14.6642 2.5 14.25 2.5H11.9326C11.6829 2.50001 11.5 2.76878 11.5 3C11.5 3.24323 11.6937 3.49999 11.9502 3.5H12.8496C13.4879 3.5 14.0378 3.71519 14.4297 4.10742C14.8154 4.49349 15 5.00334 15 5.50488C15 6.01849 14.8061 6.52785 14.416 6.9082C14.166 7.15198 13.8541 7.32334 13.5 7.41699V7.75C13.5 8.16421 13.1642 8.5 12.75 8.5C12.3358 8.49999 12 8.1642 12 7.75V7.5H10.75C10.3358 7.49999 10 7.1642 10 6.75C10 6.33579 10.3358 6.00001 10.75 6H12.8496C13.1624 6 13.5 5.86251 13.5 5.50488C13.5 5.14306 13.1693 5 12.8496 5H11.9502C10.7903 4.99999 10 3.99432 10 3C10 1.89404 10.9046 1 12 1V0.75C12 0.335793 12.3358 1.08233e-05 12.75 0ZM6.06447 0.0234375C6.28876 -0.0338403 6.52709 0.0153219 6.70998 0.157227C6.89295 0.299302 7.00002 0.518345 7.00002 0.75C7.00002 2.33333 7.00002 3.91667 7.00002 5.5C7.00002 6.32842 6.32845 7 5.50002 7C4.6716 6.99999 4.00002 6.32842 4.00002 5.5C4.00002 4.67158 4.6716 4.00001 5.50002 4V1.71484L3.00002 2.35449C3.00002 3.40299 3.00002 4.4515 3.00002 5.5C3.00002 6.32842 2.32845 7 1.50002 7C0.671603 6.99999 2.036e-05 6.32842 2.036e-05 5.5C2.036e-05 4.67158 0.671603 4.00001 1.50002 4V1.77246C1.50014 1.42992 1.73259 1.13076 2.06447 1.0459L6.06447 0.0234375Z" fill="var(--fill-0, #131E29)"/>
</svg>
