<svg preserveAspectRatio="none" width="100%" height="100%" overflow="visible" style="display: block;" viewBox="0 0 382 970.418" fill="none" xmlns="http://www.w3.org/2000/svg">
<g id="Popover">
<g id="Popover Shape" filter="url(#filter0_dd_5469_57990)">
<mask id="path-1-outside-1_5469_57990" maskUnits="userSpaceOnUse" x="30" y="28.4142" width="322" height="912" fill="black">
<rect fill="white" x="30" y="28.4142" width="322" height="912"/>
<path d="M343 38.4142C347.418 38.4142 351 41.996 351 46.4142V930.418C351 934.836 347.418 938.418 343 938.418H39C34.5818 938.418 31.0001 934.836 31 930.418V46.4142C31.0001 41.996 34.5818 38.4142 39 38.4142L47 30.4142L55 38.4142H343Z"/>
</mask>
<path d="M343 38.4142C347.418 38.4142 351 41.996 351 46.4142V930.418C351 934.836 347.418 938.418 343 938.418H39C34.5818 938.418 31.0001 934.836 31 930.418V46.4142C31.0001 41.996 34.5818 38.4142 39 38.4142L47 30.4142L55 38.4142H343Z" fill="var(--fill-0, white)"/>
<path d="M351 46.4142H352V46.4142L351 46.4142ZM351 930.418H352V930.418H351ZM343 938.418V939.418V938.418ZM31 930.418H30V930.418H31ZM31 46.4142L30 46.4142V46.4142H31ZM39 38.4142V39.4142H39.4142L39.7071 39.1213L39 38.4142ZM47 30.4142L47.7071 29.7071L47 29L46.2929 29.7071L47 30.4142ZM55 38.4142L54.2929 39.1213L54.5858 39.4142H55V38.4142ZM343 38.4142V39.4142C346.866 39.4142 350 42.5483 350 46.4142L351 46.4142L352 46.4142C352 41.4437 347.971 37.4142 343 37.4142V38.4142ZM351 46.4142H350V930.418H351H352V46.4142H351ZM351 930.418H350C350 934.284 346.866 937.418 343 937.418V938.418V939.418C347.971 939.418 352 935.389 352 930.418H351ZM343 938.418V937.418H39V938.418V939.418H343V938.418ZM39 938.418V937.418C35.1341 937.418 32.0001 934.284 32 930.418H31H30C30.0001 935.389 34.0295 939.418 39 939.418V938.418ZM31 930.418H32V46.4142H31H30V930.418H31ZM31 46.4142L32 46.4142C32.0001 42.5483 35.1341 39.4142 39 39.4142V38.4142V37.4142C34.0295 37.4142 30.0001 41.4437 30 46.4142L31 46.4142ZM39 38.4142L39.7071 39.1213L47.7071 31.1213L47 30.4142L46.2929 29.7071L38.2929 37.7071L39 38.4142ZM47 30.4142L46.2929 31.1213L54.2929 39.1213L55 38.4142L55.7071 37.7071L47.7071 29.7071L47 30.4142ZM55 38.4142V39.4142H343V38.4142V37.4142H55V38.4142Z" fill="var(--stroke-0, #556B82)" fill-opacity="0.12" mask="url(#path-1-outside-1_5469_57990)"/>
</g>
</g>
<defs>
<filter id="filter0_dd_5469_57990" x="0" y="-3.57628e-07" width="382" height="970.418" filterUnits="userSpaceOnUse" color-interpolation-filters="sRGB">
<feFlood flood-opacity="0" result="BackgroundImageFix"/>
<feColorMatrix in="SourceAlpha" type="matrix" values="0 0 0 0 0 0 0 0 0 0 0 0 0 0 0 0 0 0 127 0" result="hardAlpha"/>
<feOffset dy="1"/>
<feGaussianBlur stdDeviation="15"/>
<feColorMatrix type="matrix" values="0 0 0 0 0.133333 0 0 0 0 0.207843 0 0 0 0 0.282353 0 0 0 0.25 0"/>
<feBlend mode="normal" in2="BackgroundImageFix" result="effect1_dropShadow_5469_57990"/>
<feColorMatrix in="SourceAlpha" type="matrix" values="0 0 0 0 0 0 0 0 0 0 0 0 0 0 0 0 0 0 127 0" result="hardAlpha"/>
<feMorphology radius="1" operator="dilate" in="SourceAlpha" result="effect2_dropShadow_5469_57990"/>
<feOffset/>
<feColorMatrix type="matrix" values="0 0 0 0 0.133333 0 0 0 0 0.207843 0 0 0 0 0.282353 0 0 0 0.48 0"/>
<feBlend mode="normal" in2="effect1_dropShadow_5469_57990" result="effect2_dropShadow_5469_57990"/>
<feBlend mode="normal" in="SourceGraphic" in2="effect2_dropShadow_5469_57990" result="shape"/>
</filter>
</defs>
</svg>
