<svg preserveAspectRatio="none" width="100%" height="100%" overflow="visible" style="display: block;" viewBox="0 0 13.9999 13.9999" fill="none" xmlns="http://www.w3.org/2000/svg">
<path id="Icon" d="M6 0C9.31371 0 12 2.68629 12 6C12 7.38646 11.528 8.66175 10.7383 9.67773L13.7803 12.7197C14.0732 13.0126 14.0732 13.4874 13.7803 13.7803C13.4874 14.0732 13.0126 14.0732 12.7197 13.7803L9.67773 10.7383C8.66175 11.528 7.38646 12 6 12C2.68629 12 0 9.31371 0 6C0 2.68629 2.68629 0 6 0ZM6 1.5C3.51472 1.5 1.5 3.51472 1.5 6C1.5 8.48528 3.51472 10.5 6 10.5C8.48528 10.5 10.5 8.48528 10.5 6C10.5 3.51472 8.48528 1.5 6 1.5Z" fill="var(--fill-0, #131E29)"/>
</svg>
