<svg preserveAspectRatio="none" width="100%" height="100%" overflow="visible" style="display: block;" viewBox="0 0 15.998 16" fill="none" xmlns="http://www.w3.org/2000/svg">
<path id="Icon" d="M14.6455 6.1253C15.3626 6.06485 15.998 6.63235 15.998 7.37373V13.1404C15.9978 13.7308 15.5852 14.2418 15.0088 14.3653L7.51172 15.9718C6.734 16.1385 6.00054 15.5445 6 14.7479V8.88143C6.00009 8.28491 6.42015 7.771 7.00391 7.65355L14.6455 6.1253ZM7.5 9.08591V14.4367L14.498 12.9378V7.67898L7.5 9.08591ZM12.1484 3.0962C12.5563 3.02485 12.9442 3.29809 13.0156 3.70671C13.0868 4.11537 12.8142 4.50399 12.4062 4.57553L4.5 5.96191V12.1003C4.5 12.5153 4.16421 12.8517 3.75 12.8517C3.33579 12.8517 3 12.5153 3 12.1003V5.75253C3.00004 5.14433 3.43626 4.6238 4.03418 4.51878L12.1484 3.0962ZM9.14844 0.0113273C9.55634 -0.0600301 9.94423 0.213172 10.0156 0.621844C10.0866 1.03036 9.81402 1.41915 9.40625 1.49066L1.5 2.87704V9.01547C1.49977 9.43026 1.16407 9.76687 0.75 9.76687C0.335927 9.76687 0.00022704 9.43026 0 9.01547V2.66766C0 2.05945 0.436275 1.53896 1.03418 1.43391L9.14844 0.0113273Z" fill="var(--fill-0, #131E29)"/>
</svg>
