<svg preserveAspectRatio="none" width="100%" height="100%" overflow="visible" style="display: block;" viewBox="0 0 16 16" fill="none" xmlns="http://www.w3.org/2000/svg">
<path id="Icon" d="M8 0C3.59 0 0 3.59 0 8C0 12.41 3.59 16 8 16C12.41 16 16 12.41 16 8C16 3.59 12.41 0 8 0ZM7.2 14.34C4.05 13.95 1.6 11.25 1.6 8C1.6 7.53 1.65 7.08 1.75 6.64L5.22 10.34C5.29 10.96 5.57 11.53 6.02 11.99C6.36 12.32 6.76 12.56 7.2 12.69V14.35V14.34ZM12.55 12.49C12.13 11.61 11.24 11 10.2 11H10V8.8C10 8.36 9.64 8 9.2 8H6.57L4.9 6H6.19C6.63 6 6.99 5.64 6.99 5.2V4H9.19C9.63 4 9.99 3.64 9.99 3.2V1.92C12.54 2.76 14.39 5.16 14.39 7.99C14.39 9.74 13.68 11.33 12.54 12.48L12.55 12.49Z" fill="var(--fill-0, #131E29)"/>
</svg>
