<svg preserveAspectRatio="none" width="100%" height="100%" overflow="visible" style="display: block;" viewBox="0 0 14 15.9998" fill="none" xmlns="http://www.w3.org/2000/svg">
<path id="Icon" d="M5.12109 0.734165C6.1179 -0.183722 7.61361 -0.240814 8.67285 0.56229C8.67285 0.56229 12.8743 4.35527 13.3154 4.85819C13.7565 5.36111 14 6.00746 14 6.68241V13.2498C13.9999 14.771 12.7734 15.9998 11.25 15.9998H2.75C1.22664 15.9998 0.000113119 14.771 0 13.2498V6.74979C0 6.0046 0.300177 5.19429 0.885742 4.65213L5.12012 0.735141L5.12109 0.734165ZM7.86133 1.83573C7.37261 1.38735 6.62622 1.38702 6.1377 1.83573L6.13867 1.8367L1.9043 5.75272C1.66358 5.97576 1.5 6.36767 1.5 6.74979V13.2498C1.50011 13.9433 2.05576 14.4998 2.75 14.4998H4V9.74979C4 8.77538 4.78914 7.99979 5.75 7.99979H8.25C9.21086 7.99979 10 8.77538 10 9.74979V14.4998H11.25C11.9442 14.4998 12.4999 13.9433 12.5 13.2498V6.68241C12.5 6.37083 12.3888 6.07578 12.1875 5.84647L7.86133 1.83573ZM5.75 9.49979C5.61086 9.49979 5.5 9.6105 5.5 9.74979V14.4998H8.5V9.74979C8.5 9.6105 8.38914 9.49979 8.25 9.49979H5.75Z" fill="var(--fill-0, #131E29)"/>
</svg>
