<svg preserveAspectRatio="none" width="100%" height="100%" overflow="visible" style="display: block;" viewBox="0 0 662 1032.42" fill="none" xmlns="http://www.w3.org/2000/svg">
<g id="Popover">
<g id="Popover Shape" filter="url(#filter0_dd_5469_57983)">
<mask id="path-1-outside-1_5469_57983" maskUnits="userSpaceOnUse" x="30" y="28.4142" width="602" height="974" fill="black">
<rect fill="white" x="30" y="28.4142" width="602" height="974"/>
<path d="M623 38.4142C627.418 38.4142 631 41.996 631 46.4142V992.418C631 996.836 627.418 1000.42 623 1000.42H39C34.5818 1000.42 31.0001 996.836 31 992.418V46.4142C31.0001 41.996 34.5818 38.4142 39 38.4142L47 30.4142L55 38.4142H623Z"/>
</mask>
<path d="M623 38.4142C627.418 38.4142 631 41.996 631 46.4142V992.418C631 996.836 627.418 1000.42 623 1000.42H39C34.5818 1000.42 31.0001 996.836 31 992.418V46.4142C31.0001 41.996 34.5818 38.4142 39 38.4142L47 30.4142L55 38.4142H623Z" fill="var(--fill-0, white)"/>
<path d="M631 46.4142H632V46.4142L631 46.4142ZM631 992.418H632V992.418H631ZM623 1000.42V1001.42V1001.42V1000.42ZM31 992.418H30V992.418H31ZM31 46.4142L30 46.4142V46.4142H31ZM39 38.4142V39.4142H39.4142L39.7071 39.1213L39 38.4142ZM47 30.4142L47.7071 29.7071L47 29L46.2929 29.7071L47 30.4142ZM55 38.4142L54.2929 39.1213L54.5858 39.4142H55V38.4142ZM623 38.4142V39.4142C626.866 39.4142 630 42.5483 630 46.4142L631 46.4142L632 46.4142C632 41.4437 627.971 37.4142 623 37.4142V38.4142ZM631 46.4142H630V992.418H631H632V46.4142H631ZM631 992.418H630C630 996.284 626.866 999.418 623 999.418V1000.42V1001.42C627.971 1001.42 632 997.389 632 992.418H631ZM623 1000.42V999.418H39V1000.42V1001.42H623V1000.42ZM39 1000.42V999.418C35.1341 999.418 32.0001 996.284 32 992.418H31H30C30.0001 997.389 34.0295 1001.42 39 1001.42V1000.42ZM31 992.418H32V46.4142H31H30V992.418H31ZM31 46.4142L32 46.4142C32.0001 42.5483 35.1341 39.4142 39 39.4142V38.4142V37.4142C34.0295 37.4142 30.0001 41.4437 30 46.4142L31 46.4142ZM39 38.4142L39.7071 39.1213L47.7071 31.1213L47 30.4142L46.2929 29.7071L38.2929 37.7071L39 38.4142ZM47 30.4142L46.2929 31.1213L54.2929 39.1213L55 38.4142L55.7071 37.7071L47.7071 29.7071L47 30.4142ZM55 38.4142V39.4142H623V38.4142V37.4142H55V38.4142Z" fill="var(--stroke-0, #556B82)" fill-opacity="0.12" mask="url(#path-1-outside-1_5469_57983)"/>
</g>
</g>
<defs>
<filter id="filter0_dd_5469_57983" x="0" y="-3.57628e-07" width="662" height="1032.42" filterUnits="userSpaceOnUse" color-interpolation-filters="sRGB">
<feFlood flood-opacity="0" result="BackgroundImageFix"/>
<feColorMatrix in="SourceAlpha" type="matrix" values="0 0 0 0 0 0 0 0 0 0 0 0 0 0 0 0 0 0 127 0" result="hardAlpha"/>
<feOffset dy="1"/>
<feGaussianBlur stdDeviation="15"/>
<feColorMatrix type="matrix" values="0 0 0 0 0.133333 0 0 0 0 0.207843 0 0 0 0 0.282353 0 0 0 0.25 0"/>
<feBlend mode="normal" in2="BackgroundImageFix" result="effect1_dropShadow_5469_57983"/>
<feColorMatrix in="SourceAlpha" type="matrix" values="0 0 0 0 0 0 0 0 0 0 0 0 0 0 0 0 0 0 127 0" result="hardAlpha"/>
<feMorphology radius="1" operator="dilate" in="SourceAlpha" result="effect2_dropShadow_5469_57983"/>
<feOffset/>
<feColorMatrix type="matrix" values="0 0 0 0 0.133333 0 0 0 0 0.207843 0 0 0 0 0.282353 0 0 0 0.48 0"/>
<feBlend mode="normal" in2="effect1_dropShadow_5469_57983" result="effect2_dropShadow_5469_57983"/>
<feBlend mode="normal" in="SourceGraphic" in2="effect2_dropShadow_5469_57983" result="shape"/>
</filter>
</defs>
</svg>
