<svg preserveAspectRatio="none" width="100%" height="100%" overflow="visible" style="display: block;" viewBox="0 0 14 14" fill="none" xmlns="http://www.w3.org/2000/svg">
<path id="Icon" d="M6.99993 0C9.20928 0 10.6281 0.955669 11.4515 2.31543C12.2398 3.61717 12.4415 5.21709 12.4415 6.50488V7.14062C12.4415 8.2129 12.7823 9.11741 13.1324 9.76172C13.3206 10.1078 13.5411 10.4387 13.8009 10.7354C14.2431 11.204 13.8992 12 13.2546 12H9.41775C9.13666 13.15 8.16176 14 6.99993 14C5.83815 13.9999 4.86314 13.1499 4.5821 12H0.74524C0.0993217 11.9998 -0.243788 11.2016 0.200886 10.7334C0.230004 10.7017 0.550139 10.3454 0.867402 9.76172C1.21754 9.11741 1.55835 8.21295 1.55835 7.14062V6.50488C1.55835 5.21712 1.76013 3.61716 2.54835 2.31543C3.37175 0.955663 4.79064 6.04815e-05 6.99993 0ZM6.99993 1.5C5.30536 1.50006 4.37854 2.19013 3.83251 3.0918C3.25135 4.05158 3.05947 5.32926 3.05947 6.50488V7.14062C3.05947 8.54499 2.6099 9.70449 2.17405 10.5H11.8258C11.3897 9.70465 10.9404 8.54493 10.9404 7.14062V6.50488C10.9404 5.32922 10.7485 4.05159 10.1673 3.0918C9.62128 2.19014 8.69456 1.5 6.99993 1.5Z" fill="var(--fill-0, #131E29)"/>
</svg>
